<?xml version="1.0" encoding="utf-8"?>
<!-- Generator: Adobe Illustrator 19.2.1, SVG Export Plug-In . SVG Version: 6.00 Build 0)  -->
<svg version="1.1" id="Layer_1" xmlns="http://www.w3.org/2000/svg" xmlns:xlink="http://www.w3.org/1999/xlink" x="0px" y="0px"
	 viewBox="0 0 512 512" style="enable-background:new 0 0 512 512;" xml:space="preserve">
<style type="text/css">
	.st0{fill:#02bff6;}
</style>
<g transform="scale(2.3)">
	<g>
		<g>
			<path class="st0" d="M207.8,110.1c0,0,0,0.6-0.1,1.7s0,2.7-0.3,5c-0.1,1.1-0.2,2.4-0.3,3.8c-0.2,1.4-0.4,2.9-0.6,4.5
				c-0.3,1.6-0.6,3.3-1,5.2c-0.5,1.8-0.8,3.8-1.5,5.8c-2.3,8.1-6.1,17.6-12.6,27.3c-6.4,9.7-15.5,19.5-27.5,27.4
				c-6,3.9-12.6,7.4-19.9,10c-7.2,2.7-15,4.5-23.2,5.4c-2,0.2-4.1,0.3-6.1,0.5c-1,0-2.1,0-3.1,0.1h-1.6h-0.3h-0.2H109h-0.8
				c-1,0-2-0.1-3.1-0.1c-1,0-2.1-0.2-3.2-0.2c-2.2-0.1-4.3-0.5-6.4-0.7c-4.2-0.7-8.5-1.5-12.7-2.8c-2.1-0.6-4.2-1.3-6.3-2.1
				c-1-0.4-2-0.8-3.1-1.2l-1.5-0.6l-1.5-0.7c-16.2-7.3-30.8-19.5-41-35.1c-2.6-3.9-4.8-8-6.8-12.2s-3.6-8.7-5-13.1
				c-1.4-4.5-2.3-9.1-3-13.8c-0.2-4.8-0.5-9.5-0.5-14.2c0.1-2.4,0.1-4.6,0.3-7c0.1-1.2,0.2-2.4,0.3-3.5l0.5-3.5
				c0.8-4.6,1.8-9.2,3.2-13.7c1.4-4.5,3.1-8.8,5.1-13s4.3-8.2,6.9-12C40.7,42,55.3,30,71.4,23.2l1.5-0.7l1.5-0.6c1-0.4,2-0.8,3-1.2
				c2.1-0.7,4.1-1.4,6.2-1.9c4.1-1.2,8.3-2,12.5-2.6c2.1-0.2,4.2-0.5,6.2-0.6c1-0.1,2.1-0.2,3.1-0.2s2.1,0,3.1-0.1c0.5,0,1,0,1.6,0
				h1.5c1,0,2,0.1,3,0.1c2,0.2,4.1,0.3,6,0.5c7.9,1,15.5,2.8,22.5,5.6c7,2.7,13.4,6.1,19.2,10c11.5,7.8,20.2,17.5,26.3,26.9
				c6.1,9.5,9.7,18.7,11.8,26.5s2.8,14.1,3,18.4c0.2,2.2,0.1,3.8,0.2,4.9c0,1.1,0,1.7,0,1.7L207.8,110.1z M203.6,109.9
				c0,0,0-0.6-0.1-1.7s0-2.8-0.2-4.9c-0.3-4.3-1.1-10.6-3.3-18.4c-2.2-7.7-5.8-16.9-12.1-26.2c-6.2-9.3-14.9-18.7-26.4-26.3
				c-5.7-3.8-12.1-7-19-9.6c-6.9-2.6-14.4-4.3-22.2-5.2c-1.9-0.2-3.9-0.3-5.9-0.5c-1,0-2,0-3-0.1h-1.5h-1.5c-1,0-2,0.1-3,0.1
				s-2,0.2-3,0.2c-2,0.1-4,0.4-6.1,0.7c-4,0.7-8.1,1.5-12.1,2.7c-2,0.5-4,1.3-6,2c-1,0.4-2,0.8-2.9,1.2l-1.5,0.6l-1.4,0.7
				c-15.5,7-29.5,18.7-39.3,33.6c-2.5,3.7-4.6,7.7-6.5,11.7c-1.9,4.1-3.4,8.3-4.7,12.6c-1.3,4.4-2.2,8.8-2.8,13.3l-0.4,3.4
				c-0.2,1.1-0.2,2.2-0.3,3.3c-0.2,2.2-0.2,4.6-0.2,6.8c0.1,4.5,0.4,9,1.1,13.4c0.7,4.4,1.7,8.8,3,13.1c1.4,4.3,2.9,8.4,4.9,12.4
				s4.1,7.9,6.6,11.5c9.9,14.7,23.9,26,39.2,32.7l1.4,0.6l1.5,0.6c1,0.4,1.9,0.8,2.9,1.1c2,0.6,3.9,1.3,5.9,1.8
				c3.9,1.2,8,1.9,11.9,2.5c2,0.2,4,0.5,5.9,0.6c1,0.1,1.9,0.2,2.9,0.2s2,0,3.1,0.1h0.8h0.4h0.2c0.1,0,0,0,0.1,0h1.5
				c1,0,1.9-0.1,2.9-0.1c1.9-0.2,3.9-0.3,5.8-0.5c7.6-0.9,14.9-2.7,21.5-5.3c6.7-2.6,12.9-5.9,18.4-9.6c11-7.5,19.3-16.7,25.2-25.8
				s9.3-17.9,11.3-25.4c2-7.4,2.6-13.6,2.9-17.6c0.2-2,0.1-3.7,0.2-4.8c0-1.1,0-1.7,0-1.7L203.6,109.9z"/>
		</g>
		<circle class="st0" cx="202.8" cy="118.7" r="16"/>
		<circle class="st0" cx="109.9" cy="109.9" r="27.9"/>
	</g>
</g>
</svg>
